# xmcd CD database file
#
# Track frame offsets:
#	150
#	16031
#	19368
#	35462
#	58172
#	81471
#	98042
#	127575
#	140036
#	146112
#	160165
#	165393
#	178449
#	206299
#
# Disc length: 2981 seconds
#
# Revision: 0
# Processed by: cddbd v1.5.2PL0 Copyright (c) Steve Scherf et al.
# Submitted via: CDex 1.70beta2
#
DISCID=bd0ba30e
DTITLE=Chesterton, Gilbert Keith -  - Der Fluch der Pendragons
DYEAR=2009
DGENRE=Hoerbuch
TTITLE0=01 Der Fluch der Pendragons
TTITLE1=02 Der Fluch der Pendragons
TTITLE2=03 Der Fluch der Pendragons
TTITLE3=04 Der Fluch der Pendragons
TTITLE4=05 Der Fluch der Pendragons
TTITLE5=06 Der Fluch der Pendragons
TTITLE6=07 Der Fluch der Pendragons
TTITLE7=08 Der Fluch der Pendragons
TTITLE8=09 Der Fluch der Pendragons
TTITLE9=10 Der Fluch der Pendragons
TTITLE10=11 Der Fluch der Pendragons
TTITLE11=12 Der Fluch der Pendragons
TTITLE12=13 Der Fluch der Pendragons
TTITLE13=14 Der Fluch der Pendragons
EXTD=YEAR: 2009
EXTT0=
EXTT1=
EXTT2=
EXTT3=
EXTT4=
EXTT5=
EXTT6=
EXTT7=
EXTT8=
EXTT9=
EXTT10=
EXTT11=
EXTT12=
EXTT13=
PLAYORDER=
